HIERARCHY
ROOT joint_Root
{
	OFFSET 0.0 0.0 0.0
	CHANNELS 6 Xposition Yposition Zposition Zrotation Xrotation Yrotation 
	JOINT Hips
	{
		OFFSET 4.5925 91.4895 -427.239
		CHANNELS 6 Xposition Yposition Zposition Zrotation Xrotation Yrotation 
		JOINT Spine
		{
			OFFSET 15.7357 0.0 0.0
			CHANNELS 6 Xposition Yposition Zposition Zrotation Xrotation Yrotation 
			JOINT Chest
			{
				OFFSET 8.98455 -0.406207 0.0
				CHANNELS 6 Xposition Yposition Zposition Zrotation Xrotation Yrotation 
				JOINT Neck
				{
					OFFSET 16.3773 0.0 0.0
					CHANNELS 6 Xposition Yposition Zposition Zrotation Xrotation Yrotation 
					JOINT Head
					{
						OFFSET 6.45672 0.0 0.0
						CHANNELS 6 Xposition Yposition Zposition Zrotation Xrotation Yrotation 
						End Site
						{
							OFFSET 0.0 0.0 0.0
						}
					}
				}
				JOINT Shoulder_L
				{
					OFFSET 12.9942 -0.242716 4.98039
					CHANNELS 6 Xposition Yposition Zposition Zrotation Xrotation Yrotation 
					JOINT UpperArm_L
					{
						OFFSET 5.34809 0.0 0.0
						CHANNELS 6 Xposition Yposition Zposition Zrotation Xrotation Yrotation 
						JOINT LowerArm_L
						{
							OFFSET 24.3286 1.87007e-05 0.0
							CHANNELS 6 Xposition Yposition Zposition Zrotation Xrotation Yrotation 
							JOINT Hand_L
							{
								OFFSET 22.2916 0.0 0.0
								CHANNELS 6 Xposition Yposition Zposition Zrotation Xrotation Yrotation 
								End Site
								{
									OFFSET 0.0 0.0 0.0
								}
							}
						}
					}
				}
				JOINT Shoulder_R
				{
					OFFSET 12.9945 -0.242716 -4.98039
					CHANNELS 6 Xposition Yposition Zposition Zrotation Xrotation Yrotation 
					JOINT UpperArm_R
					{
						OFFSET -5.34813 0.0 0.0
						CHANNELS 6 Xposition Yposition Zposition Zrotation Xrotation Yrotation 
						JOINT LowerArm_R
						{
							OFFSET -24.3289 0.000322201 0.0
							CHANNELS 6 Xposition Yposition Zposition Zrotation Xrotation Yrotation 
							JOINT Hand_R
							{
								OFFSET -22.2915 -0.000108084 0.0
								CHANNELS 6 Xposition Yposition Zposition Zrotation Xrotation Yrotation 
								End Site
								{
									OFFSET 0.0 0.0 0.0
								}
							}
						}
					}
				}
			}
		}
		JOINT UpperLeg_L
		{
			OFFSET -2.19248 -6.46944 0.0
			CHANNELS 6 Xposition Yposition Zposition Zrotation Xrotation Yrotation 
			JOINT LowerLeg_L
			{
				OFFSET 39.0811 0.0 -1.23785e-05
				CHANNELS 6 Xposition Yposition Zposition Zrotation Xrotation Yrotation 
				JOINT Foot_L
				{
					OFFSET 40.9854 0.0 -1.26872e-05
					CHANNELS 6 Xposition Yposition Zposition Zrotation Xrotation Yrotation 
					JOINT Toes_L
					{
						OFFSET 11.7543 0.0 0.0
						CHANNELS 6 Xposition Yposition Zposition Zrotation Xrotation Yrotation 
						End Site
						{
							OFFSET 0.0 0.0 0.0
						}
					}
				}
			}
		}
		JOINT UpperLeg_R
		{
			OFFSET -2.19251 6.46944 0.0
			CHANNELS 6 Xposition Yposition Zposition Zrotation Xrotation Yrotation 
			JOINT LowerLeg_R
			{
				OFFSET -39.0811 -0.00228153 -0.0401928
				CHANNELS 6 Xposition Yposition Zposition Zrotation Xrotation Yrotation 
				JOINT Foot_R
				{
					OFFSET -40.9854 0.0 0.0
					CHANNELS 6 Xposition Yposition Zposition Zrotation Xrotation Yrotation 
					JOINT Toes_R
					{
						OFFSET -11.7543 0.0 0.0
						CHANNELS 6 Xposition Yposition Zposition Zrotation Xrotation Yrotation 
						End Site
						{
							OFFSET 0.0 0.0 0.0
						}
					}
				}
			}
		}
	}
}
MOTION
Frames:	6
Frame Time:	0.0333333
0.000000 0.000000 0.000000 0.000000 0.000000 -0.000000 -1.033080 80.989300 -0.944609 88.779400 -1.288770 14.546000 15.735700 0.000005 -0.000001 85.153500 80.437700 -85.201100 8.984550 -0.406207 -0.000000 11.292800 -1.604610 0.063505 16.377300 -0.000001 -0.000001 -4.287700 -4.583710 1.875530 6.456720 -0.000001 -0.000000 -1.477740 -3.312810 1.731360 12.994200 -0.242716 4.980390 -91.148800 4.375810 -75.274900 5.348090 -0.000007 -0.000001 -55.556400 37.445900 -23.176900 24.328600 0.000019 0.000005 12.284600 25.046400 -27.219000 22.291600 -0.000001 0.000005 1.459270 5.318670 -0.461510 12.994500 -0.242716 -4.980390 89.061700 6.517790 -81.790100 -5.348130 -0.000001 -0.000004 -49.384300 53.078200 -21.781100 -24.328900 0.000322 -0.000009 4.819150 13.226800 -20.231500 -22.291500 -0.000108 -0.000004 -2.475330 5.312640 -0.290148 -2.192480 -6.469440 -0.000000 -172.604000 -9.348110 -13.030500 39.081100 -0.000007 -0.000012 -0.634715 0.290703 65.393300 40.985400 -0.000006 -0.000013 0.877384 4.896200 -87.590000 11.754300 -0.000000 0.000003 -0.000401 -0.003314 -16.699700 -2.192510 6.469440 -0.000001 176.506000 11.971900 167.906000 -39.081100 -0.002282 -0.040193 0.103806 -0.046473 65.214400 -40.985400 0.000008 0.000006 7.750890 3.332910 -88.398200 -11.754300 -0.000006 -0.000006 -0.483051 -0.593205 -16.886700
0.000000 0.000000 0.000000 0.000000 0.000000 -0.000000 -1.105250 82.813900 -0.421827 88.867800 -1.249250 15.085200 15.735700 0.000005 -0.000001 84.786900 80.980400 -84.922200 8.984550 -0.406207 -0.000000 10.199700 -1.631230 -0.124937 16.377300 -0.000001 -0.000001 -1.984440 -4.301040 1.917620 6.456720 -0.000001 -0.000000 -0.060027 -3.084440 0.975041 12.994200 -0.242716 4.980390 -90.801400 2.984880 -74.962800 5.348090 -0.000007 -0.000001 -50.353600 32.020000 -28.723600 24.328600 0.000019 0.000005 11.694200 22.846400 -28.063600 22.291600 -0.000001 0.000005 1.137040 5.305040 -0.075503 12.994500 -0.242716 -4.980390 89.359400 4.290380 -81.498800 -5.348130 -0.000001 -0.000004 -38.473800 53.886800 -33.807300 -24.328900 0.000322 -0.000009 5.806110 14.114600 -22.641900 -22.291500 -0.000108 -0.000004 -11.930200 5.261760 1.132050 -2.192480 -6.469440 -0.000000 -172.462000 -9.479220 -9.497630 39.081100 -0.000007 -0.000012 -0.584940 0.334966 60.203700 40.985400 -0.000006 -0.000013 0.763531 5.245850 -85.369000 11.754300 -0.000000 0.000003 -0.000329 -0.002813 -16.682000 -2.192510 6.469440 -0.000001 176.224000 12.027400 171.342000 -39.081100 -0.002282 -0.040193 0.090349 -0.050014 60.149300 -40.985400 0.000008 0.000006 7.534810 3.875150 -86.043800 -11.754300 -0.000006 -0.000006 -0.511365 -0.628146 -17.051900
0.000000 0.000000 0.000000 0.000000 0.000000 -0.000000 -1.122640 85.389400 0.061087 89.360400 -1.786460 15.058500 15.735700 0.000005 -0.000001 84.657700 82.092300 -84.998700 8.984550 -0.406207 -0.000000 7.978320 -1.466860 -0.579147 16.377300 -0.000001 -0.000001 2.164320 -3.732750 1.998720 6.456720 -0.000001 -0.000000 2.055320 -2.742240 0.358265 12.994200 -0.242716 4.980390 -90.283500 1.029800 -74.606500 5.348090 -0.000007 -0.000001 -45.767300 21.107400 -34.505500 24.328600 0.000019 0.000005 10.566100 18.763500 -30.109600 22.291600 -0.000001 0.000005 4.462160 5.255590 1.280690 12.994500 -0.242716 -4.980390 89.560300 2.585820 -80.345000 -5.348130 -0.000001 -0.000004 -29.055900 45.595900 -43.250100 -24.328900 0.000322 -0.000009 5.041350 9.933730 -27.091400 -22.291500 -0.000108 -0.000004 -11.237100 5.218570 2.251980 -2.192480 -6.469440 -0.000000 -172.772000 -10.284500 -5.008850 39.081100 -0.000007 -0.000012 -0.464462 0.362084 52.061900 40.985400 -0.000006 -0.000013 0.502560 5.520000 -81.656400 11.754300 -0.000000 0.000003 -0.000238 -0.002141 -16.657900 -2.192510 6.469440 -0.000001 175.464000 12.277100 175.279000 -39.081100 -0.002282 -0.040193 0.071244 -0.051965 52.615700 -40.985400 0.000008 0.000006 7.609330 5.398910 -82.188400 -11.754300 -0.000006 -0.000006 -0.599500 -0.735307 -17.386400
0.000000 0.000000 0.000000 0.000000 0.000000 -0.000000 -1.098870 87.702700 0.094787 89.598900 -2.689260 13.096400 15.735700 0.000005 -0.000001 84.829100 83.859500 -85.101500 8.984550 -0.406207 -0.000000 4.463150 -1.097120 -0.501372 16.377300 -0.000001 -0.000001 5.913300 -3.473910 1.895010 6.456720 -0.000001 -0.000000 4.988090 -2.331280 -0.492961 12.994200 -0.242716 4.980390 -89.606700 -1.460100 -74.923500 5.348090 -0.000007 -0.000001 -41.922900 7.530470 -40.932300 24.328600 0.000019 0.000005 11.951900 18.388100 -33.862800 22.291600 -0.000001 0.000005 6.899580 5.213200 2.387540 12.994500 -0.242716 -4.980390 89.924300 0.415899 -79.676300 -5.348130 -0.000001 -0.000004 -26.294400 29.369400 -46.751700 -24.328900 0.000322 -0.000009 6.720040 9.330750 -36.003600 -22.291500 -0.000108 -0.000004 -3.060760 5.252270 1.399500 -2.192480 -6.469440 -0.000000 -173.336000 -11.301400 -2.850440 39.081100 -0.000007 -0.000012 -0.332397 0.345235 43.915300 40.985400 -0.000006 -0.000013 0.117613 5.417130 -77.564600 11.754300 -0.000000 0.000003 -0.000152 -0.001468 -16.633300 -2.192510 6.469440 -0.000001 175.186000 13.323900 176.865000 -39.081100 -0.002282 -0.040193 0.052647 -0.049226 45.091000 -40.985400 0.000008 0.000006 7.749850 7.945150 -77.977700 -11.754300 -0.000006 -0.000006 -0.447909 -0.553502 -17.947600
0.000000 0.000000 0.000000 0.000000 0.000000 -0.000000 -1.042240 89.262500 -0.096190 89.340800 -3.572520 10.550600 15.735700 0.000005 -0.000001 83.614600 85.253100 -83.655100 8.984550 -0.406207 -0.000000 1.668780 -1.053120 -0.065562 16.377300 -0.000001 -0.000001 6.786620 -3.146830 2.133180 6.456720 -0.000001 -0.000000 6.460980 -1.780410 -1.350840 12.994200 -0.242716 4.980390 -89.067200 -3.356350 -74.458600 5.348090 -0.000007 -0.000001 -36.960600 -7.873620 -47.721300 24.328600 0.000019 0.000005 13.555400 16.573700 -40.205700 22.291600 -0.000001 0.000005 11.269000 5.241410 1.663710 12.994500 -0.242716 -4.980390 90.249800 -1.271950 -78.888400 -5.348130 -0.000001 -0.000004 -25.501200 8.670120 -51.289700 -24.328900 0.000322 -0.000009 10.507600 9.792080 -47.484400 -22.291500 -0.000108 -0.000004 10.785600 5.354660 -1.455350 -2.192480 -6.469440 -0.000000 -173.685000 -11.926100 -2.479370 39.081100 -0.000007 -0.000012 -0.272008 0.350308 37.829200 40.985400 -0.000006 -0.000013 -0.270221 4.900850 -74.369100 11.754300 -0.000000 0.000003 -0.000097 -0.001002 -16.616000 -2.192510 6.469440 -0.000001 175.526000 14.911700 177.091000 -39.081100 -0.002282 -0.040193 0.036062 -0.040496 38.989200 -40.985400 0.000008 0.000006 7.638400 10.735800 -74.766100 -11.754300 -0.000006 -0.000006 -0.259412 -0.333851 -18.110900
0.000000 0.000000 0.000000 0.000000 0.000000 -0.000000 -0.948551 90.121100 -0.407469 88.908800 -4.307170 8.512150 15.735700 0.000005 -0.000001 82.365500 85.759200 -82.113900 8.984550 -0.406207 -0.000000 0.643074 -1.142050 0.509263 16.377300 -0.000001 -0.000001 5.289630 -3.025100 2.334530 6.456720 -0.000001 -0.000000 4.980110 -1.160650 -1.543620 12.994200 -0.242716 4.980390 -88.499000 -5.249890 -74.020300 5.348090 -0.000007 -0.000001 -35.848500 -26.361200 -53.618900 24.328600 0.000019 0.000005 15.704300 14.023800 -49.243400 22.291600 -0.000001 0.000005 18.394800 5.248890 1.455440 12.994500 -0.242716 -4.980390 90.761700 -3.803970 -78.668500 -5.348130 -0.000001 -0.000004 -32.558200 -14.643100 -57.714400 -24.328900 0.000322 -0.000009 7.387710 4.580270 -58.392400 -22.291500 -0.000108 -0.000004 21.868900 5.448640 -4.577200 -2.192480 -6.469440 -0.000000 -173.894000 -11.963800 -2.960600 39.081100 -0.000007 -0.000012 -0.243348 0.356791 34.296300 40.985400 -0.000006 -0.000013 -0.567109 4.122040 -72.403000 11.754300 -0.000000 0.000003 -0.000077 -0.000819 -16.609100 -2.192510 6.469440 -0.000001 176.086000 16.524600 176.946000 -39.081100 -0.002282 -0.040193 0.026430 -0.033344 34.758500 -40.985400 0.000008 0.000006 7.853600 13.101200 -73.122500 -11.754300 -0.000006 -0.000006 -0.002299 -0.032396 -17.890500
